<?xml version="1.0" standalone="no"?><!DOCTYPE svg PUBLIC "-//W3C//DTD SVG 1.1//EN" "http://www.w3.org/Graphics/SVG/1.1/DTD/svg11.dtd"><svg t="1682261236918" class="icon" viewBox="0 0 1024 1024" version="1.1" xmlns="http://www.w3.org/2000/svg" p-id="2792" xmlns:xlink="http://www.w3.org/1999/xlink" width="200" height="200"><path d="M820.8 233H205.1C126.2 233 62 297.2 62 376.1v400.2c0 78.9 64.2 143.1 143.1 143.1h615.7c78.9 0 143.1-64.2 143.1-143.1V376.1c0-78.9-64.2-143.1-143.1-143.1z m0 642.9H205.1c-54.9 0-99.6-44.7-99.6-99.6V376.1c0-54.9 44.7-99.6 99.6-99.6h615.7c54.9 0 99.6 44.7 99.6 99.6v95c-27.7-28.9-66.5-47.1-109.7-47.1h-60.4c-84 0-152.3 68.3-152.3 152.3s68.3 152.3 152.3 152.3h60.4c43.1 0 81.9-18.2 109.7-47.1v94.9c-0.1 54.8-44.7 99.5-99.6 99.5z m98.6-299.7c0 60-48.8 108.8-108.8 108.8h-60.4c-60 0-108.8-48.8-108.8-108.8s48.8-108.8 108.8-108.8h60.4c60 0.1 108.8 48.8 108.8 108.8zM204.2 167.9h617.4c16.5 0 30-13.5 30-30s-13.5-30-30-30H204.2c-16.5 0-30 13.5-30 30s13.5 30 30 30z" fill="#2c2c2c" p-id="2793"></path><path d="M810.5 525.3c-32.7 0-59.4 26.6-59.4 59.4s26.6 59.4 59.4 59.4 59.4-26.6 59.4-59.4-26.6-59.4-59.4-59.4z m0 75.2c-8.6 0-15.9-7.3-15.9-15.9 0-8.8 7.1-15.9 15.9-15.9s15.9 7.1 15.9 15.9-7.1 15.9-15.9 15.9z" fill="#2c2c2c" p-id="2794"></path></svg>